<svg viewBox="0 0 50 50"><path fill-rule="evenodd" clip-rule="evenodd" d="M30.7.3c-.3.1-.4 0-.4-.3 1 .5 1.2.2 2.1.3.3.3.3.5-.1.8.6.4.9-1.3 1.4-.4-.2.1-.3.2-.5.3.1.2 4.3.2 4.9.5 1 .5 4.5 2.7 4.5 3.6-.1.1-.3.2-.4.3 0 0 1.6 2.1 1.7 2.3.7 1.2 1.1 1.9 1.6 2.8 1 1.9 2.2 4.2 1.8 6.2 1.1.3.9.9.3 1.5 0 .2 1.2 1.9 1.4 2.7.3 1 .4 2.4.6 3.7.1 1.2.8 4.9.2 6-.2.5-2.2 1.2-2.2 1.3-.3.4-.1.8-.5 1.2-.8.8-1.2 2-1.8 2.8-1.2 1.6-2.4 3.1-3.9 4.5-2.8 2.6-5.3 5-9.1 6.6-3.1 1.3-6.9 3.5-10.5 2.4-.2.1-.4.3-.4.6-.2.1-1-.6-1.3-.6.2.3.1.5-.2.6-1.5-1.4-6.8-.5-7.4-3.1-1.6.4-1.2-.4-2.2-1-.4-.2-2.4-1.4-3.2-1.9-1-.6-2.2-1.6-2.9-2.4-1.3-1.5-.5-.5-.1-2.3-.2-.6-1.5 1.3-1.4 1.2-.3.1-1.4-1.3-1.4-1.5.8.1.5.9 1 .9.7.1-.5-1.4-.3-1.7.2.3.5.3.7 0 .4-.7-1.1-.7-1.3-1 0-.2.2-.4.4-.4-.1-.6-1.3.3-1.2-.5 1.4-.6-.5-1-.3-1.7.5.4.8.3.9-.3-.6-.3-1.1-1-1.2-1.4 0-.3 2.2 2.5 2.6 2.5.3 0-1.2-1.9-1.3-2.1.7-.1 1 .9 1.4.6 0 0-1-1.7-.9-1.4.2-.4.4.5.8-.4-.4-.3-.3.8-.6-.3.1 0 .3-.1.4-.2-.2-.5-1.2.1-1.6-.1.2-.3.2-.6-.2-.9 0 0 1.3 1.1 1.3.3-.1-.2-.3-.3-.5-.3.1-1 1.7 1.1 1.7 1.1.6-.1-.8-2.2-.7-2.3.2-.1.5-.1.7 0 .7-.8-1.4-.1-.6-.8.9-.2 0 .3-.2-.6.5-.6.6.1.7-.9-.3-.1-.6-.2-.8-.5.1-.2.3-.3.6-.2-.7-4.7-.8-9 1.4-13.1C5.4 10.8 7 9.5 9.3 8.2c.9-.5 1.9-1.2 2.8-1.7.8-.5 2.6-1.1 3.1-1.6-.2-.3-.5-.3-.8-.1.1-.8 2.3-1.2 2.6-1.1.3-.1 1.6-1.5 2.1-1.8.7-.4 1.3-.6 2.4-.8.9-.2 4.1-1 2.9-.3.9.3.8-.9 1.5-.1.4-.1 4.8-1.1 4.8-.4zm4.4 1.2c.1.2.3 0 .3-.2-.2.1-.3 0-.3.2zm1 .1c.1.1.4 0 .3-.2-.1-.1-.3 0-.3.2zM18.5 2.7c.2 0 .3-.1.3-.3-.2 0-.3.1-.3.3zm22.6 1.9c0 .2.5.3.6 0-.2-.2-.7-.3-.6 0zm2.5 3.8c.2.1.3-.1.3-.3-.2-.1-.4.1-.3.3zM8.5 25.8c.1 0 .3 0 .3-.2-.1-.1-.4 0-.3.2zm.3.6c.1.5.7-.1.6-.2-.2.1-.4.2-.6.2zm-1 .3s.1 0 0 0c.8.2.3-.7 0 0zm1 .2c-.2 0-1.7.1-1.7.5.2.4 1 0 .5.6.3.2.6.2.9 0 0-.3-.5 0-.5-.3-.1 0 1.8-.7.8-.8zm.7.9l-.9.3c.4.4 1.1 0 .9-.3zm.6.2c.1 0 .1 0 .2-.1-.1 0-.2 0-.2.1zm-3 .1c.1 0 .4.2.5-.1-.1-.1-.6-.2-.5.1zm2.5.5c-.4-.1-.5.5-.7.8.4-.1 1.4-.3 1.9-.7-.4-.3-.8-.3-1.2-.1zm-1.8.1c-.1 0-1.2-.1-1.2.3.1.1 2.1.7 2.2.4-.1-.9.2-.3.2-.7-.4-.1-.8-.1-1.2 0zm2 .6c-.1.7-1.1.6-1.2.9.2.2 1.8.1 1.8 0-.1.1.3-1.2.3-1.2-.2.2-.5.2-.9.3zm1.3.3c.1-.2 0-.3-.2-.4 0 .3-.1.4.2.4zm.3.5c-.2-.2-.4-.2-.6.1 0 0 1.1.8 1.2.8.1 0 .2-.8.2-.9h-.8zm-8.8 2.8c-.1.3.5.5.5.2-.1-.3-.4-.5-.5-.2zm.7 1c.1 0 .2-.1.2-.2-.2-.2-.6.2-.2.2zm-.8.4c-.1.4.8.3.7-.1-.2 0-.5.1-.7.1zm.5.7c0 .5.8.6.8 0H3zm-1.9.4c.1.1 1.2 1.5 1.1.4 0-.1-1.1-1.1-1.1-.4zm1.5.6c.6.2.8.1.6-.5-.2.2-.4.3-.6.5zm6.9.6c.9.1 1.1-.1.8-.8-.6 0-.9.2-.8.8zm-.5-.3c0-.3-.6-.3-.7 0 .2.2.7.3.7 0zm-7.1.6l.8-.3c-.4-.2-.7-.1-.8.3zm7.7-.1c-.3-.2-.6-.1-.8.2.3.3.9.3.8-.2zm-.3.9c.1.1.8.6.9.5 0 0-.4-1.9-.9-.5zm.1.8c.1 0 .2-.2.2-.4-.3-.1-.5.3-.2.4zm-6.7 0c.4.6.6.5.6-.3-.1.1-.3.2-.6.3zm9.1 1.1c.5.3.5-.7.5-.8-.5.1-.6.3-.5.8zM8.4 39c-.4-.2-.3.5.4.1.8-.4-.6 0-.4-.1zm11.1.3c-.5.2-.4.4.1.5.4-.2.5-.5.3-.9-.2 0-.4.1-.4.4zm-1.7.3c-.4.5.7.3.7 0-.3-.1-.5-.1-.7 0zm-.7.2c.2 0 .2-.1.3-.2-.2-.2-.5 0-.3.2zm-8.8 0c.1 0 1.6.5 1.3-.2-.3 0-1.3-.1-1.3.2zm4.1.1c-.4.4-.4.5.2.3 0-.3-.4-1-.2-.3zm-6.9.2c-.8.1-1.9-.1-2 1.1.3 0 1.3-1.7 1.7-.6-.2 0-.4.2-.5.4.6.7.4-.1.8.6.6-.2.1-1.2 0-1.5zm5.5.2c-.6-.1.5.7.7 0-.3-.2-.5-.2-.7 0zm-1.1.2c.2 0 .2-.1.4-.1 0-.4-.4-.2-.4.1zm-.4 0c.1-.1.3 0 .4 0 0-.3-.6-.3-.4 0zm2.3.5c.1 0 .1-.1 0-.2.1.2 0 .2 0 .2zm-2 .1c-.3.7.4.9.9.8 0-.1-.3-1-.3-.9-.1-.1-.3-.1-.6.1zm1.4-.1c-.3.4-.2 1.7-.6 2.3 0 0 2.9-2.6 3-2-.2 0-2.7.1-2.4-.3zm3.4 1c-.4-.1-.8.1-1.1.4.6.9.9-.8.7.6.1 0 .9.1 1.1.2 0-1.1 0-.5-.7-1.2zm1.9.3c.2-.2 0-.4-.3-.3 0 .2.1.3.3.3zm-5.8.1c0 .2.3.1.3-.1-.1 0-.3 0-.3.1zm4.8.4c.4.4.6.3.7-.2-.2 0-.5 0-.7.2zm-1.8.1c.1.2.4-.1.1-.2 0 .1-.1 0-.1.2zm-1.8.1c-.4.7.7 1.3.9.6-.4-.4-.3-.4-.9-.6zm5.1.2c0 .4.8.4.9.2 0-.2-.7-.3-.9-.2zm-2.9.4c.2.1.5.1.5-.2-.2-.1-.5-.1-.5.2zm-1.2.1c.2 0 .5.1.5-.2-.1-.1-.5-.1-.5.2zm-1.6.2c0 .2-.2.9.1.9.5-.6.3-.3.5-1.1-.2.1-.4.2-.6.2zm2.7.2c.1-.1.1-.2 0-.3-.1.1-.2.2 0 .3zm2.8 0c.1.6.5.4.7.9-.1.1-.7.5-.7.6 1.9.6.1-2.4 0-1.5zm-2 .2c.1 0 .2-.1.3-.1 0-.3-.3-.1-.3.1zm-1.7-.1c.3-.4-.1 1.8-.1 1.6 1 .3 1.4-.1 1.2-1-.9.2-.5 0-.5-.7-.2.1-.4.1-.6.1zm-.7.1c-.1.3.5.4.5.1-.1-.3-.4-.3-.5-.1zm2.6.7c.3.1.6-.1.7-.3-.2-.2-.6 0-.7.3zm-2.7.3c.3.2.8.1.8-.3-.2.1-.9-.2-.8.3zm3.5.5c.1 0 .2-.1.2-.2-.1-.1-.3.1-.2.2zm-1.3.8c.2 0 .3-.1.3-.3-.2-.3-.6 0-.3.3zm1.8-.2c.1 0 .2.1.3.1.1-.1-.2-.2-.3-.1z"></path></svg>