<svg xmlns="http://www.w3.org/2000/svg" viewBox="0 0 310 170" preserveAspectRatio="none"><path fill="#E7E6E3" d="M309.4 74.7c-5.1-10.5 4.9-31.5-1.7-44.2 1.6-.8 1.8-2 .6-3.4 0-1.9-.2-3.7-.6-5.6 3.8-3.7-3-18.4-1.7-21.1h-5.5c0 1.1.1 2.1.4 3.2-1.4 0-2.8 0-4.2-.1.1-.3.1-.7.2-1.1-2.7.4-3.4.7-4.7-1.8.2-.1.4-.1.5-.2h-5.3c-.5.5-2.1 1.9-1.9 2.9-1 0-1.9 0-2.9-.1.7-.9 1.3-1.7 1.9-2.5-1.3-1.9-7.7.6-9.3.9V.4h-4.1c.2 1.1-.4 1.8-1.9 2-.2-1.3-.9-1.8-2-1.6l.2.2c-.3.1-.6.3-1 .4.3.6.5 1 .7 1.5-61.6-.9-118.9 0-164.6 1.3 0-.1-.1-.1-.1-.2-5.4 2.4-21.7.9-26.6 1.1-.5-2.8-2.3-6.6-2 .1-2.3.1-4.5.2-6.6.2-.2-.4-.3-.8-.4-1.1-1.7 1.9-4 2.4-6.8 1.4 0-.7-.2-.8-.5-1.3-2.9 1.5-8.7.5-4.3-2.1-.2-.4-.4-.9-.4-1.1-2.9.2-5.1 1.9-4.9 4.9-3.4.1-6.7.3-9.8.4-.4-1.5.2-9.2-4.5-3.8.3.9 1 1.5 1.9 1.7-1.4.3-2 1.1-1.7 2.3-1.3.1-2.5.1-3.8.2-.2-.7.2-1.3 1.3-1.6-.2-.4-.4-.9-.6-1.5-.5.2-.8.4-1.1.6-.9-.7-1.2-1.6-.7-2.9-2.3-.2-7.1 2.4-3.1 4.7 2-1.7 1.2-3.2 2.6.7-2 .1-3.9.2-5.7.3V1.4c-2.2-.3-1.6 2.5-2.4 4.2.9.3 1.3.9 1.2 1.6-5.8.3-1.7-4.3-3.1-6.9-2.6 1.2-4.7.9-7.3 2.3-.8-1.4-2.1-1.8-3.7-1.2.1.1.2.2.2.3l-.9.9C9 4 9.9 4.4 11.3 3.8c0 .1 0 .1-.1.2.7.3 1.3.6 2.3 1.1L14.6 4l.4.4c-1.7.6-1.8 1.7-.4 3.3-1.7 1-2.9 1.1-3.8.1-2.2 1.3-8.1.6-10.8.7l2.1 55.1h-.6c.2 5.1 1.1 9.7 1.2 14.7h-.1c.5 1.7-1 3.7.2 5.3-2.1 2.4-.4 9.8.6 12.6-3.5 0-2.3 36.1-.6 39.3-1.6.8-1.8 2-.6 3.4 0 1.9.2 3.7.6 5.6-1.9 1.9-.5 14 3 13.4.2.6 0 1.2-.3 1.7l-1.2-1.2c-3.8 2.1.9 6 .2 7.3h1.6v2.6c2.9-.1 10.7-1.1 12.6-1.9v-.5c1.2-.4 1.9 0 2 1.3 1.8-.5 3.6 1.2 5.3-.2 1.8 1.7 3.2.9 4.7-.7 1.7 3.2 40.5 4 46.8.7.8 1.6 2 1.8 3.4.6 1.9 0 3.7-.2 5.5-.6 6.8 7 59.5-.8 66.8-.9 51-.2 102-.8 153-2.5v-61.3h2.6c-.1-2.9-1.1-10.8-1.9-12.7h-.6v-1.4c.5-.2.9-.4 1.4-.7-.5-1.9 1.2-3.6-.2-5.3 1.7-1.9.9-3.2-.7-4.8 1.8 0 2.7-1 2.6-2.7zM19 7.5c-.7 0-1.3.1-2 .1V6.3c1.3-.3 2.1.1 2 1.2zm261-4.3h-1.8c.2-.2.4-.5.6-.8.3.1.7.3 1.2.4v.4zm24.1-1.7h-.8v-.2h.8v.2z"/></svg>