<svg viewBox="0 0 20 20" fill="none"><path d="M10.901 2.674c3.55.457 6.299 3.57 6.299 7.341a7.52 7.52 0 0 1-.994 3.749h-1.903a5.88 5.88 0 0 0 .897-1.493 5.908 5.908 0 0 0 .442-2.256c0-.785-.149-1.543-.442-2.255a5.817 5.817 0 0 0-1.209-1.844 5.588 5.588 0 0 0-3.09-1.623V2.674zM5.408 15.711v-2.328a5.953 5.953 0 0 1-.609-1.112 5.91 5.91 0 0 1-.441-2.256c0-.785.148-1.543.441-2.255.163-.396.367-.77.609-1.112V4.316a7.456 7.456 0 0 0-2.608 5.7 7.448 7.448 0 0 0 2.608 5.694zM9.825 2H5.697l.79 1.657v12.705L5.708 18h9.355l.853-3.131h-6.09V2z" fill="#C28F2C"></path></svg>