<svg viewBox="0 0 13.26 13.3"><path d="M6.63 3.29a3.43 3.43 0 1 0 3.42 3.44 3.43 3.43 0 0 0-3.42-3.44zm0 5.65a2.22 2.22 0 1 1 2.22-2.22 2.21 2.21 0 0 1-2.22 2.22z" fill="#fdfefe" fill-rule="evenodd"></path><path d="M10.96 3.13a.8.8 0 1 1-.8-.8.8.8 0 0 1 .8.8z" fill="#fdfefe"></path><path d="M6.63.05H3.88a5 5 0 0 0-1.62.31 3.31 3.31 0 0 0-1.18.77 3.31 3.31 0 0 0-.77 1.18 5.29 5.29 0 0 0-.35 1.62v5.5a5.22 5.22 0 0 0 .35 1.62 3.35 3.35 0 0 0 .77 1.19 3.42 3.42 0 0 0 1.18.76 4.75 4.75 0 0 0 1.62.31h5.5a4.75 4.75 0 0 0 1.58-.32 3.15 3.15 0 0 0 1.18-.76 3.35 3.35 0 0 0 .82-1.18 5 5 0 0 0 .31-1.61V3.93a5 5 0 0 0-.31-1.62 3.46 3.46 0 0 0-2-2A5 5 0 0 0 9.33.05a26.88 26.88 0 0 1-2.7 0zm0 1.2h2.69a3.78 3.78 0 0 1 1.24.23 2.21 2.21 0 0 1 1.27 1.27 3.67 3.67 0 0 1 .23 1.23v5.39a3.78 3.78 0 0 1-.23 1.24 2.21 2.21 0 0 1-1.27 1.27 3.77 3.77 0 0 1-1.24.22H3.96a3.77 3.77 0 0 1-1.24-.22 2.21 2.21 0 0 1-1.27-1.27 3.78 3.78 0 0 1-.23-1.24V3.98a3.67 3.67 0 0 1 .21-1.23A2.21 2.21 0 0 1 2.7 1.48a3.78 3.78 0 0 1 1.26-.23c.68.01.89 0 2.67 0z" fill="#fdfefe" fill-rule="evenodd"></path></svg>