<svg viewBox="0 0 2 40"><path d="M1.7 4.2s.1-.1 0-.1c.1-.3 0-1.8 0-2.1.1-.5 0-.8.2-1.2 0 0-.2-.5-.2-.1 0-.2-.1 0-.2 0V.6C1.4.6.9.6.9.3.7.5.5.1.3.3.1.5.3 1.4.3 1.7c-.1.4-.1 1.2-.1 2-.1 3 0 6.1-.1 9.1 0 1 0 2-.1 3 0 1.6.2 3.2.2 4.8 0 2.7-.1 5.5 0 8.2 0 2 0 4 .1 5.9.1 1 .2 2.6 0 3.3-.1.2 0 .7 0 .9 0 .1.1.5.1.4.3 0 .2.6.4.7.4.3.5-.4.6-.7.3.3.2-.8.2-1v-8.6c0-3.5.1-7 .1-10.5v-4.5c0-.3-.1-1 .1-1.2V8.9c0-.8-.1-1.6 0-2.4 0-.5-.1-1.4.1-1.7-.2-.2-.2-.4-.2-.6M1.8.5s0 .1 0 0zM.3 38.3zM1.8.7c0-.1 0-.1 0 0z"></path></svg>