<svg viewBox="0 0 24 24"><path fill-rule="evenodd" clip-rule="evenodd" d="M12 24c6.627 0 12-5.373 12-12S18.627 0 12 0 0 5.373 0 12s5.373 12 12 12zm5.653-13.318c.115 0 .23-.007.345-.018H18v-2.33A3.738 3.738 0 0 1 14.552 5h-2.009l-.02 9.774c0 1.2-1.061 2.144-2.262 2.144s-2.175-.972-2.175-2.17c0-1.2.974-2.172 2.175-2.172.067 0 .131.009.196.018l.067.009v-2.096l-.061-.005c-.067-.004-.134-.009-.202-.009A4.257 4.257 0 0 0 6 14.747 4.257 4.257 0 0 0 10.26 19a4.257 4.257 0 0 0 4.261-4.254V8.992a3.745 3.745 0 0 0 3.132 1.69z" fill="#fff"></path></svg>