<svg viewBox="0 0 20 14"><path fill-rule="evenodd" clip-rule="evenodd" d="M1.9 5.7H.6c-.3 0-.6.3-.6.7v1.3c0 .3.3.6.6.6h1.2c.3 0 .6-.3.6-.7V6.4c.1-.4-.2-.7-.5-.7zm17.5.7H6.2c-.3 0-.6.2-.6.6 0 .4.3.6.6.6h13.1c.4 0 .7-.2.7-.6 0-.4-.3-.6-.6-.6zM1.9 10.9H.6c-.3 0-.6.3-.6.7v1.3c0 .4.3.7.6.7h1.2c.3 0 .6-.3.6-.7v-1.3c.1-.4-.2-.7-.5-.7zm17.5.6H6.2c-.3 0-.6.3-.6.7 0 .4.3.7.6.7h13.1c.3 0 .6-.3.6-.7.1-.4-.2-.7-.5-.7zM1.9.5H.6c-.3 0-.6.3-.6.6v1.3c0 .4.3.6.6.6h1.2c.3 0 .6-.3.6-.6V1.1c.1-.3-.2-.6-.5-.6zm4.3 2h13.1c.3 0 .6-.3.6-.7 0-.4-.3-.6-.6-.6H6.2c-.3 0-.6.3-.6.6 0 .4.3.7.6.7z"></path></svg>