<svg viewBox="0 0 20 20"><path fill-rule="evenodd" clip-rule="evenodd" d="M18.8 20h-6.2c-.7 0-1.2-.6-1.2-1.3v-6.2c0-.7.6-1.3 1.2-1.3h6.2c.7 0 1.2.6 1.2 1.3v6.2c0 .7-.6 1.3-1.2 1.3zm0-7.5h-6.2v6.2h6.2v-6.2zm0-3.7h-6.2c-.7 0-1.2-.6-1.2-1.3V1.3c0-.7.6-1.3 1.2-1.3h6.2c.6 0 1.2.6 1.2 1.3v6.2c0 .7-.6 1.3-1.2 1.3zm0-7.5h-6.2v6.2h6.2V1.3zM7.5 20H1.2C.6 20 0 19.4 0 18.8v-6.2c0-.7.6-1.3 1.2-1.3h6.3c.7 0 1.2.6 1.2 1.3v6.2c.1.6-.5 1.2-1.2 1.2zm0-7.5H1.2v6.2h6.3v-6.2zm0-3.7H1.2C.6 8.8 0 8.2 0 7.5V1.3C0 .6.6 0 1.2 0h6.3c.7 0 1.2.6 1.2 1.3v6.2c.1.7-.5 1.3-1.2 1.3zm0-7.5H1.2v6.2h6.3V1.3z"></path></svg>